<svg width="66" height="68" viewBox="0 0 66 68" fill="none" xmlns="http://www.w3.org/2000/svg">
<rect width="65.6472" height="67.9999" rx="10" fill="#005456"/>
<mask id="path-2-inside-1_29845_3510" fill="white">
<path d="M29.4295 42.8239H26.353C25.7289 42.8239 25.1304 42.576 24.6892 42.1347C24.2479 41.6934 24 41.0949 24 40.4709V26.353C24 25.7289 24.2479 25.1304 24.6892 24.6892C25.1304 24.2479 25.7289 24 26.353 24H35.7649C36.389 24 36.9875 24.2479 37.4287 24.6892C37.87 25.1304 38.1179 25.7289 38.1179 26.353V35.7649"/>
</mask>
<path d="M29.4295 44.8239C30.5341 44.8239 31.4295 43.9284 31.4295 42.8239C31.4295 41.7193 30.5341 40.8239 29.4295 40.8239V42.8239V44.8239ZM24 40.4709H22H24ZM26.353 24V22V24ZM35.7649 24V22V24ZM36.1179 35.7649C36.1179 36.8695 37.0133 37.7649 38.1179 37.7649C39.2225 37.7649 40.1179 36.8695 40.1179 35.7649H38.1179H36.1179ZM29.4295 42.8239V40.8239H26.353V42.8239V44.8239H29.4295V42.8239ZM26.353 42.8239V40.8239C26.2594 40.8239 26.1696 40.7867 26.1034 40.7205L24.6892 42.1347L23.275 43.5489C24.0913 44.3652 25.1985 44.8239 26.353 44.8239V42.8239ZM24.6892 42.1347L26.1034 40.7205C26.0372 40.6543 26 40.5645 26 40.4709H24H22C22 41.6254 22.4586 42.7326 23.275 43.5489L24.6892 42.1347ZM24 40.4709H26V26.353H24H22V40.4709H24ZM24 26.353H26C26 26.2594 26.0372 26.1696 26.1034 26.1034L24.6892 24.6892L23.275 23.275C22.4586 24.0913 22 25.1985 22 26.353H24ZM24.6892 24.6892L26.1034 26.1034C26.1696 26.0372 26.2594 26 26.353 26V24V22C25.1985 22 24.0913 22.4586 23.275 23.275L24.6892 24.6892ZM26.353 24V26H35.7649V24V22H26.353V24ZM35.7649 24V26C35.8585 26 35.9483 26.0372 36.0145 26.1034L37.4287 24.6892L38.8429 23.275C38.0266 22.4586 36.9194 22 35.7649 22V24ZM37.4287 24.6892L36.0145 26.1034C36.0807 26.1696 36.1179 26.2594 36.1179 26.353H38.1179H40.1179C40.1179 25.1985 39.6593 24.0913 38.8429 23.275L37.4287 24.6892ZM38.1179 26.353H36.1179V35.7649H38.1179H40.1179V26.353H38.1179Z" fill="white" mask="url(#path-2-inside-1_29845_3510)"/>
<path d="M34.5883 41.6469L36.9412 43.9999L41.6472 39.2939" stroke="white" stroke-width="2" stroke-linecap="round" stroke-linejoin="round"/>
<path d="M28.7061 28.7065H33.412" stroke="white" stroke-width="2" stroke-linecap="round" stroke-linejoin="round"/>
<path d="M28.7061 33.4121H31.059" stroke="white" stroke-width="2" stroke-linecap="round" stroke-linejoin="round"/>
</svg>
