<svg width="21" height="20" viewBox="0 0 21 20" fill="none" xmlns="http://www.w3.org/2000/svg">
<g clip-path="url(#clip0_29845_3524)">
<path d="M9.27054 0V8.60454H0.647217V0H2.86411V3.02474C2.86411 3.30655 3.03319 3.55078 3.27743 3.6635C3.52166 3.77623 3.82225 3.71986 4.02891 3.53199L4.96827 2.63021L5.90763 3.53199C6.03914 3.6635 6.20823 3.71986 6.37731 3.71986C6.47125 3.71986 6.56518 3.70108 6.64033 3.6635C6.88457 3.55078 7.05365 3.30655 7.05365 3.02474V0H9.27054Z" fill="white"/>
<path d="M5.68221 0V1.40904L5.43798 1.1648C5.17495 0.901782 4.76164 0.901782 4.47983 1.1648L4.2356 1.40904V0H5.68221Z" fill="white"/>
</g>
<g clip-path="url(#clip1_29845_3524)">
<path d="M9.27054 11.4282V20.0328H0.647217V11.4282H2.86411V14.453C2.86411 14.7348 3.03319 14.979 3.27743 15.0917C3.52166 15.2045 3.82225 15.1481 4.02891 14.9602L4.96827 14.0584L5.90763 14.9602C6.03914 15.0917 6.20823 15.1481 6.37731 15.1481C6.47125 15.1481 6.56518 15.1293 6.64033 15.0917C6.88457 14.979 7.05365 14.7348 7.05365 14.453V11.4282H9.27054Z" fill="white"/>
<path d="M5.68221 11.4282V12.8373L5.43798 12.593C5.17495 12.33 4.76164 12.33 4.47983 12.593L4.2356 12.8373V11.4282H5.68221Z" fill="white"/>
</g>
<g clip-path="url(#clip2_29845_3524)">
<path d="M20.6991 0V8.60454H12.0758V0H14.2927V3.02474C14.2927 3.30655 14.4618 3.55078 14.706 3.6635C14.9502 3.77623 15.2508 3.71986 15.4575 3.53199L16.3969 2.63021L17.3362 3.53199C17.4677 3.6635 17.6368 3.71986 17.8059 3.71986C17.8998 3.71986 17.9938 3.70108 18.0689 3.6635C18.3132 3.55078 18.4822 3.30655 18.4822 3.02474V0H20.6991Z" fill="white"/>
<path d="M17.1107 0V1.40904L16.8664 1.1648C16.6034 0.901782 16.1901 0.901782 15.9083 1.1648L15.6641 1.40904V0H17.1107Z" fill="white"/>
</g>
<g clip-path="url(#clip3_29845_3524)">
<path d="M20.6991 11.4282V20.0328H12.0758V11.4282H14.2927V14.453C14.2927 14.7348 14.4618 14.979 14.706 15.0917C14.9502 15.2045 15.2508 15.1481 15.4575 14.9602L16.3969 14.0584L17.3362 14.9602C17.4677 15.0917 17.6368 15.1481 17.8059 15.1481C17.8998 15.1481 17.9938 15.1293 18.0689 15.0917C18.3132 14.979 18.4822 14.7348 18.4822 14.453V11.4282H20.6991Z" fill="white"/>
<path d="M17.1107 11.4282V12.8373L16.8664 12.593C16.6034 12.33 16.1901 12.33 15.9083 12.593L15.6641 12.8373V11.4282H17.1107Z" fill="white"/>
</g>
<defs>
<clipPath id="clip0_29845_3524">
<rect x="0.647217" width="8.57143" height="8.57143" rx="0.571429" fill="white"/>
</clipPath>
<clipPath id="clip1_29845_3524">
<rect x="0.647217" y="11.4282" width="8.57143" height="8.57143" rx="0.571429" fill="white"/>
</clipPath>
<clipPath id="clip2_29845_3524">
<rect x="12.0758" width="8.57143" height="8.57143" rx="0.571429" fill="white"/>
</clipPath>
<clipPath id="clip3_29845_3524">
<rect x="12.0758" y="11.4282" width="8.57143" height="8.57143" rx="0.571429" fill="white"/>
</clipPath>
</defs>
</svg>
