<svg width="68" height="68" viewBox="0 0 68 68" fill="none" xmlns="http://www.w3.org/2000/svg">
<rect width="68" height="68" rx="10" fill="#005456"/>
<g clip-path="url(#clip0_29845_3569)">
<path d="M32.3333 34.8337C32.3333 35.2757 32.5088 35.6996 32.8214 36.0122C33.134 36.3247 33.5579 36.5003 33.9999 36.5003C34.4419 36.5003 34.8659 36.3247 35.1784 36.0122C35.491 35.6996 35.6666 35.2757 35.6666 34.8337C35.6666 34.3916 35.491 33.9677 35.1784 33.6551C34.8659 33.3426 34.4419 33.167 33.9999 33.167C33.5579 33.167 33.134 33.3426 32.8214 33.6551C32.5088 33.9677 32.3333 34.3916 32.3333 34.8337Z" stroke="white" stroke-width="2" stroke-linecap="round" stroke-linejoin="round"/>
<path d="M30.6667 41.5V40.6667C30.6667 40.2246 30.8423 39.8007 31.1549 39.4882C31.4675 39.1756 31.8914 39 32.3334 39H35.6667C36.1088 39 36.5327 39.1756 36.8453 39.4882C37.1578 39.8007 37.3334 40.2246 37.3334 40.6667V41.5" stroke="white" stroke-width="2" stroke-linecap="round" stroke-linejoin="round"/>
<path d="M36.5 28.1667C36.5 28.6087 36.6756 29.0326 36.9882 29.3452C37.3007 29.6577 37.7246 29.8333 38.1667 29.8333C38.6087 29.8333 39.0326 29.6577 39.3452 29.3452C39.6577 29.0326 39.8333 28.6087 39.8333 28.1667C39.8333 27.7246 39.6577 27.3007 39.3452 26.9882C39.0326 26.6756 38.6087 26.5 38.1667 26.5C37.7246 26.5 37.3007 26.6756 36.9882 26.9882C36.6756 27.3007 36.5 27.7246 36.5 28.1667Z" stroke="white" stroke-width="2" stroke-linecap="round" stroke-linejoin="round"/>
<path d="M38.1667 32.333H39.8334C40.2754 32.333 40.6994 32.5086 41.0119 32.8212C41.3245 33.1337 41.5001 33.5576 41.5001 33.9997V34.833" stroke="white" stroke-width="2" stroke-linecap="round" stroke-linejoin="round"/>
<path d="M28.1667 28.1667C28.1667 28.6087 28.3423 29.0326 28.6549 29.3452C28.9675 29.6577 29.3914 29.8333 29.8334 29.8333C30.2754 29.8333 30.6994 29.6577 31.0119 29.3452C31.3245 29.0326 31.5001 28.6087 31.5001 28.1667C31.5001 27.7246 31.3245 27.3007 31.0119 26.9882C30.6994 26.6756 30.2754 26.5 29.8334 26.5C29.3914 26.5 28.9675 26.6756 28.6549 26.9882C28.3423 27.3007 28.1667 27.7246 28.1667 28.1667Z" stroke="white" stroke-width="2" stroke-linecap="round" stroke-linejoin="round"/>
<path d="M26.5 34.833V33.9997C26.5 33.5576 26.6756 33.1337 26.9882 32.8212C27.3007 32.5086 27.7246 32.333 28.1667 32.333H29.8333" stroke="white" stroke-width="2" stroke-linecap="round" stroke-linejoin="round"/>
</g>
<defs>
<clipPath id="clip0_29845_3569">
<rect width="20" height="20" fill="white" transform="translate(24 24)"/>
</clipPath>
</defs>
</svg>
