<svg width="69" height="68" viewBox="0 0 69 68" fill="none" xmlns="http://www.w3.org/2000/svg">
<rect x="0.647217" width="68" height="67.9996" rx="10" fill="#005456"/>
<g clip-path="url(#clip0_29845_3516)">
<path d="M33.2705 24V32.6045H24.6472V24H26.8641V27.0247C26.8641 27.3065 27.0332 27.5508 27.2774 27.6635C27.5217 27.7762 27.8223 27.7199 28.0289 27.532L28.9683 26.6302L29.9076 27.532C30.0391 27.6635 30.2082 27.7199 30.3773 27.7199C30.4712 27.7199 30.5652 27.7011 30.6403 27.6635C30.8846 27.5508 31.0537 27.3065 31.0537 27.0247V24H33.2705Z" fill="white"/>
<path d="M29.6822 24V25.409L29.438 25.1648C29.175 24.9018 28.7616 24.9018 28.4798 25.1648L28.2356 25.409V24H29.6822Z" fill="white"/>
</g>
<g clip-path="url(#clip1_29845_3516)">
<path d="M33.2705 35.4282V44.0328H24.6472V35.4282H26.8641V38.453C26.8641 38.7348 27.0332 38.979 27.2774 39.0917C27.5217 39.2045 27.8223 39.1481 28.0289 38.9602L28.9683 38.0584L29.9076 38.9602C30.0391 39.0917 30.2082 39.1481 30.3773 39.1481C30.4712 39.1481 30.5652 39.1293 30.6403 39.0917C30.8846 38.979 31.0537 38.7348 31.0537 38.453V35.4282H33.2705Z" fill="white"/>
<path d="M29.6822 35.4282V36.8373L29.438 36.593C29.175 36.33 28.7616 36.33 28.4798 36.593L28.2356 36.8373V35.4282H29.6822Z" fill="white"/>
</g>
<g clip-path="url(#clip2_29845_3516)">
<path d="M44.6991 24V32.6045H36.0758V24H38.2927V27.0247C38.2927 27.3065 38.4618 27.5508 38.706 27.6635C38.9502 27.7762 39.2508 27.7199 39.4575 27.532L40.3969 26.6302L41.3362 27.532C41.4677 27.6635 41.6368 27.7199 41.8059 27.7199C41.8998 27.7199 41.9938 27.7011 42.0689 27.6635C42.3132 27.5508 42.4822 27.3065 42.4822 27.0247V24H44.6991Z" fill="white"/>
<path d="M41.1107 24V25.409L40.8664 25.1648C40.6034 24.9018 40.1901 24.9018 39.9083 25.1648L39.6641 25.409V24H41.1107Z" fill="white"/>
</g>
<g clip-path="url(#clip3_29845_3516)">
<path d="M44.6991 35.4282V44.0328H36.0758V35.4282H38.2927V38.453C38.2927 38.7348 38.4618 38.979 38.706 39.0917C38.9502 39.2045 39.2508 39.1481 39.4575 38.9602L40.3969 38.0584L41.3362 38.9602C41.4677 39.0917 41.6368 39.1481 41.8059 39.1481C41.8998 39.1481 41.9938 39.1293 42.0689 39.0917C42.3132 38.979 42.4822 38.7348 42.4822 38.453V35.4282H44.6991Z" fill="white"/>
<path d="M41.1107 35.4282V36.8373L40.8664 36.593C40.6034 36.33 40.1901 36.33 39.9083 36.593L39.6641 36.8373V35.4282H41.1107Z" fill="white"/>
</g>
<defs>
<clipPath id="clip0_29845_3516">
<rect x="24.6472" y="24" width="8.57143" height="8.57143" rx="0.571429" fill="white"/>
</clipPath>
<clipPath id="clip1_29845_3516">
<rect x="24.6472" y="35.4282" width="8.57143" height="8.57143" rx="0.571429" fill="white"/>
</clipPath>
<clipPath id="clip2_29845_3516">
<rect x="36.0758" y="24" width="8.57143" height="8.57143" rx="0.571429" fill="white"/>
</clipPath>
<clipPath id="clip3_29845_3516">
<rect x="36.0758" y="35.4282" width="8.57143" height="8.57143" rx="0.571429" fill="white"/>
</clipPath>
</defs>
</svg>
