<svg width="56" height="56" viewBox="0 0 56 56" fill="none" xmlns="http://www.w3.org/2000/svg">
<g clip-path="url(#clip0_29845_3174)">
<mask id="mask0_29845_3174" style="mask-type:alpha" maskUnits="userSpaceOnUse" x="0" y="0" width="56" height="56">
<path d="M56 28C56 12.536 43.464 0 28 0C12.536 0 0 12.536 0 28C0 43.464 12.536 56 28 56C43.464 56 56 43.464 56 28Z" fill="white"/>
</mask>
<g mask="url(#mask0_29845_3174)">
<path d="M56 0H0V56H56V0Z" fill="#FEB052"/>
<path d="M63.2679 -1.64841L18.8018 3.81133C12.6623 4.56517 8.29641 10.1533 9.05024 16.2928L14.51 60.7589C15.2638 66.8983 20.852 71.2643 26.9914 70.5104L71.4575 65.0507C77.597 64.2969 81.9629 58.7087 81.2091 52.5692L75.7494 8.10317C74.9955 1.96368 69.4074 -2.40225 63.2679 -1.64841Z" fill="#4894FE"/>
<path d="M29.0284 31.3486C32.2167 32.7392 35.3235 32.5764 38.349 30.8602" stroke="white" stroke-width="2.22222" stroke-linecap="round"/>
<path d="M24.6564 22.2316C24.6115 21.3737 24.0534 20.7055 23.4099 20.7392C22.7665 20.773 22.2813 21.4958 22.3263 22.3537C22.3712 23.2116 22.9293 23.8798 23.5728 23.8461C24.2162 23.8124 24.7014 23.0895 24.6564 22.2316Z" fill="white"/>
<path d="M43.2975 21.2545C43.2526 20.3966 42.6945 19.7285 42.0511 19.7622C41.4076 19.7959 40.9224 20.5187 40.9674 21.3767C41.0124 22.2346 41.5704 22.9028 42.2139 22.869C42.8573 22.8353 43.3425 22.1125 43.2975 21.2545Z" fill="white"/>
</g>
</g>
<defs>
<clipPath id="clip0_29845_3174">
<rect width="56" height="56" fill="white"/>
</clipPath>
</defs>
</svg>
