<svg width="19" height="21" viewBox="0 0 19 21" fill="none" xmlns="http://www.w3.org/2000/svg">
<mask id="path-1-inside-1_29845_3504" fill="white">
<path d="M5.42951 18.8239H2.35298C1.72893 18.8239 1.13044 18.576 0.689173 18.1347C0.247903 17.6934 0 17.0949 0 16.4709V2.35298C0 1.72893 0.247903 1.13044 0.689173 0.689173C1.13044 0.247903 1.72893 0 2.35298 0H11.7649C12.389 0 12.9875 0.247903 13.4287 0.689173C13.87 1.13044 14.1179 1.72893 14.1179 2.35298V11.7649"/>
</mask>
<path d="M5.42951 20.8239C6.53408 20.8239 7.42951 19.9284 7.42951 18.8239C7.42951 17.7193 6.53408 16.8239 5.42951 16.8239V18.8239V20.8239ZM0 16.4709H-2H0ZM2.35298 0V-2V0ZM11.7649 0V-2V0ZM12.1179 11.7649C12.1179 12.8695 13.0133 13.7649 14.1179 13.7649C15.2225 13.7649 16.1179 12.8695 16.1179 11.7649H14.1179H12.1179ZM5.42951 18.8239V16.8239H2.35298V18.8239V20.8239H5.42951V18.8239ZM2.35298 18.8239V16.8239C2.25937 16.8239 2.16958 16.7867 2.10339 16.7205L0.689173 18.1347L-0.725041 19.5489C0.091301 20.3652 1.1985 20.8239 2.35298 20.8239V18.8239ZM0.689173 18.1347L2.10339 16.7205C2.03719 16.6543 2 16.5645 2 16.4709H0H-2C-2 17.6254 -1.54138 18.7326 -0.725041 19.5489L0.689173 18.1347ZM0 16.4709H2V2.35298H0H-2V16.4709H0ZM0 2.35298H2C2 2.25937 2.03719 2.16958 2.10339 2.10339L0.689173 0.689173L-0.725041 -0.725041C-1.54138 0.0913019 -2 1.1985 -2 2.35298H0ZM0.689173 0.689173L2.10339 2.10339C2.16958 2.03719 2.25937 2 2.35298 2V0V-2C1.1985 -2 0.0913019 -1.54138 -0.725041 -0.725041L0.689173 0.689173ZM2.35298 0V2H11.7649V0V-2H2.35298V0ZM11.7649 0V2C11.8585 2 11.9483 2.03719 12.0145 2.10339L13.4287 0.689173L14.8429 -0.725041C14.0266 -1.54138 12.9194 -2 11.7649 -2V0ZM13.4287 0.689173L12.0145 2.10339C12.0807 2.16958 12.1179 2.25937 12.1179 2.35298H14.1179H16.1179C16.1179 1.1985 15.6593 0.091301 14.8429 -0.725041L13.4287 0.689173ZM14.1179 2.35298H12.1179V11.7649H14.1179H16.1179V2.35298H14.1179Z" fill="white" mask="url(#path-1-inside-1_29845_3504)"/>
<path d="M10.5883 17.6469L12.9412 19.9999L17.6472 15.2939" stroke="white" stroke-width="2" stroke-linecap="round" stroke-linejoin="round"/>
<path d="M4.70605 4.70654H9.41202" stroke="white" stroke-width="2" stroke-linecap="round" stroke-linejoin="round"/>
<path d="M4.70605 9.41211H7.05904" stroke="white" stroke-width="2" stroke-linecap="round" stroke-linejoin="round"/>
</svg>
